<svg xmlns="http://www.w3.org/2000/svg" width="128" height="128" viewBox="0 0 128 128">
  <path fill="#F7A80D" d="M38.089 77.466l-11.4 4.896 10.559 4.514 12.241-4.514-11.4-4.896zm-17.138 6.12l-.382 22.034 16.679 7.345V90.089l-16.297-6.503zm34.276 0l-15.073 5.739V110.9l15.073-6.121V83.586zm17.979-68.551L61.44 19.9l11.4 4.515 12.241-4.515-11.4-4.896zm-15.914 6.503v22.034l14.692 4.132V29.142l-14.692-7.604zM78.87 41.03l-16.297-4.514v-19.9l-15.073 6.122v22.034l31.37-3.742zM23.738 32.585v60.03l15.073 7.604V40.701l-15.073-8.116zm21.196 8.116V114.1l15.073-7.604V33.207l-15.073 7.494zm-21.196-20.074l13.427 7.604 17.138-7.604-13.427-7.604-17.138 7.604zM59.333 10.91L46.027 3.42 29.01 10.91l13.307 7.494 17.016-7.494z"/>
</svg> 