<svg xmlns="http://www.w3.org/2000/svg" width="128" height="128" viewBox="0 0 128 128">
  <path fill="#107C10" d="M64 5C30.4 5 3 32.4 3 66s27.4 61 61 61 61-27.4 61-61S97.6 5 64 5zm28.3 31.7L76 54.3 92.6 73H78.3l-9.4-11.2L57.5 73H43.4l16.6-18.5L44.1 36.7h14.3l9.2 10.7 10.9-10.7h13.8zm-62.9 0h14.5v41.4H29.4V36.7zM115 83.3c-1.2 7.9-4.6 14.4-10.2 19.7-5.6 5.3-12.7 8.2-21.1 8.8-8.5.6-16-1.5-22.7-6.3-6.7-4.8-11.1-11.2-13.5-19.2l-.7-2.2h13.9c2.1 5.3 5.6 9.1 10.5 11.5 4.9 2.4 10.1 2.9 15.5 1.5 5.4-1.4 9.8-4.5 13.2-9.3 3.4-4.8 4.6-10.1 3.6-16-1-5.9-3.9-10.5-8.5-13.8-4.6-3.3-9.9-4.8-16-4.3-6.1.5-11.3 3-15.6 7.4v-13c5.9-3.2 12.1-4.9 18.5-4.9 4.7 0 9.1.8 13.4 2.4s8 3.9 11.1 6.8c3.1 2.9 5.5 6.3 7.4 10.3 1.8 3.9 2.7 8.2 2.7 12.7 0 1.8-.2 4.3-.5 7.9z"/>
</svg> 