<svg xmlns="http://www.w3.org/2000/svg" width="128" height="128" viewBox="0 0 128 128">
  <path fill="#512BD4" d="M41.531 20.363c-.75 0-1.484.188-2.156.563-.672.375-1.198.89-1.562 1.562a3.904 3.904 0 00-.563 2.094c0 .734.188 1.453.563 2.125.375.688.89 1.219 1.562 1.594.672.375 1.406.562 2.156.562.75 0 1.469-.188 2.156-.563.688-.375 1.22-.906 1.594-1.594.375-.672.563-1.39.563-2.125s-.188-1.46-.563-2.094c-.375-.672-.906-1.188-1.594-1.562-.688-.375-1.406-.563-2.156-.563zm47.594 44.618c-1.516 0-2.844.297-3.984.875-1.156.578-2.094 1.36-2.813 2.375-.718 1.016-1.25 2.203-1.594 3.563-.343 1.375-.53 2.844-.53 4.406 0 1.625.203 3.125.593 4.5.375 1.375.906 2.562 1.625 3.531a7.633 7.633 0 002.656 2.313c1.094.547 2.344.812 3.75.812 1.359 0 2.531-.202 3.531-.594.984-.39 1.805-.906 2.438-1.53.633-.626 1.109-1.329 1.438-2.095.328-.75.5-1.5.53-2.25H93.47c-.078.922-.39 1.687-.937 2.312-.547.61-1.329.907-2.344.907-.687 0-1.281-.172-1.75-.532-.484-.375-.875-.875-1.219-1.531-.328-.641-.562-1.422-.687-2.313-.125-.906-.188-1.874-.188-2.937v-.625h11.281v-.719c0-1.094-.125-2.172-.375-3.25-.265-1.078-.703-2.047-1.312-2.906-.61-.844-1.407-1.532-2.407-2.063-.984-.516-2.202-.781-3.656-.781zm26.469.03c-.984 0-1.875.235-2.656.72-.781.485-1.407 1.109-1.875 1.906h-.094v-2.25h-4.25V94h4.438v-17.75c.062-.563.218-1.031.469-1.438.234-.39.547-.687.937-.906.375-.203.797-.312 1.281-.344.484-.03.938.016 1.375.126.405.124.798.374 1.156.718.359.36.625.828.813 1.407V94h4.438V75.481c0-1.36-.188-2.484-.563-3.375-.375-.906-.89-1.625-1.531-2.156a5.312 5.312 0 00-2.25-1.063 9.88 9.88 0 00-2.688-.281zM73 65.25v28.781h4.219V73.687h.125L86.25 94.032h3.813V65.25h-4.22v18.75h-.124L76.781 65.25zm-49.5 1.594l-10.656 35h4.937l2.219-7.594h12.969l2.187 7.594h5.063l-10.657-35zm31.656 8.687c-.765 0-1.484.204-2.156.625-.672.407-1.235.97-1.688 1.688a6.002 6.002 0 00-.844 2.47c-.14.906-.11 1.78.126 2.624.218.844.562 1.625 1.031 2.344.469.703 1.063 1.297 1.75 1.75.687.469 1.406.719 2.156.719.734 0 1.469-.22 2.219-.657.734-.422 1.328-.984 1.781-1.687.453-.688.688-1.453.719-2.313h-4a2.149 2.149 0 01-.219.313c-.125.125-.266.234-.438.344a1.368 1.368 0 01-.781.25c-.328 0-.625-.141-.906-.407-.266-.265-.485-.64-.657-1.124-.171-.47-.289-1.032-.343-1.657-.063-.625-.094-1.266-.094-1.937 0-.313.015-.626.062-.938.047-.297.094-.594.125-.875.031-.266.11-.5.219-.688.109-.203.25-.359.406-.469.14-.093.312-.125.5-.125.266 0 .5.047.719.157.203.124.36.297.469.53.093.281.14.579.14.907 0 .078-.16.155-.31.219h3.813c0-.203-.016-.407-.032-.594-.015-.188-.046-.36-.062-.563-.172-.968-.516-1.78-1.063-2.453a4.923 4.923 0 00-2.062-1.53c-.829-.36-1.719-.533-2.688-.533zm47.594 8.563c.453 0 .859.125 1.219.344.344.234.625.546.844.968.219.438.375.938.469 1.532.078.594.125 1.234.125 1.906h-5.531c.016-.625.078-1.234.188-1.844.125-.594.328-1.11.625-1.53.281-.407.64-.733 1.062-.97.422-.265.922-.406 1.5-.406zM39.75 77.97l4.625 15.968H30.5zM26 101.781V114h16v-4h-11v-8.219zm20 0V114h5V101.781zm8 0V114h16v-4h-11v-1.5h9v-3.5h-9v-1h11v-2.219z"/>
</svg> 