<svg width="24" height="24" viewBox="0 0 24 24" fill="none" xmlns="http://www.w3.org/2000/svg">
  <path d="M12 2C6.477 2 2 6.477 2 12C2 16.418 4.865 20.166 8.84 21.49C9.34 21.58 9.52 21.27 9.52 21.01C9.52 20.77 9.512 20.08 9.508 19.27C6.726 19.91 6.139 17.97 6.139 17.97C5.685 16.81 5.029 16.5 5.029 16.5C4.121 15.88 5.098 15.9 5.098 15.9C6.101 15.97 6.629 16.91 6.629 16.91C7.521 18.43 8.969 18.01 9.54 17.76C9.63 17.11 9.89 16.68 10.17 16.42C7.879 16.16 5.461 15.31 5.461 11.5C5.461 10.39 5.859 9.49 6.649 8.79C6.549 8.54 6.199 7.5 6.749 6.15C6.749 6.15 7.6 5.88 9.499 7.17C10.299 6.95 11.149 6.84 12.001 6.84C12.85 6.84 13.7 6.95 14.5 7.17C16.399 5.88 17.249 6.15 17.249 6.15C17.799 7.5 17.449 8.54 17.351 8.79C18.141 9.49 18.539 10.39 18.539 11.5C18.539 15.32 16.119 16.16 13.819 16.41C14.169 16.73 14.479 17.37 14.479 18.34C14.479 19.73 14.469 20.68 14.469 21.01C14.469 21.27 14.649 21.59 15.159 21.49C19.137 20.16 22 16.42 22 12C22 6.477 17.523 2 12 2Z" fill="currentColor"/>
</svg>