<svg xmlns="http://www.w3.org/2000/svg" width="128" height="128" viewBox="0 0 128 128">
  <path fill="#261300" d="M0 0h128v128H0z"/>
  <path fill="#FF7C00" d="M48.75 70.77l-3.59 13.51c-.09.24-.12.49-.36.49-.12 0-9.9-.36-9.9-.36-.24 0-.36-.12-.36-.35L51.98 30.4c.12-.35.24-.72.35-1.78 0-.12.12-.24.12-.24.12 0 .24-.12.24-.12h14.01c.12 0 .24 0 .24.12l17.93 54.88c0 .24-.12.36-.36.36h-9.9c-.24 0-.36-.12-.36-.24l-3.83-13.63H48.76zM63.7 61c-.96-3.95-4.31-13.86-5.39-18.29h-.12c-.96 3.95-3.35 12.31-5.27 18.29H63.7zM87.25 44.5c0-3.47-.12-5.62-.24-7.04 0-.12.12-.24.24-.36.96-.12 3.47-.36 6.32-.36 7.16 0 14.85 2.51 14.85 13.03 0 9.42-6.8 13.4-15.33 13.4-.96 0-1.44 0-2.04-.12 0 6.92 0 12.31.12 14.13 0 .24 0 .36-.24.36h-9.54c-.24 0-.24-.12-.24-.36.12-3 .12-6.56.12-10.03V44.51h-.02zm10.07 10.63c.72 0 1.19.12 1.67.12 2.51 0 5.15-1.07 5.15-4.78 0-3.23-1.67-4.66-4.9-4.66-.84 0-1.44 0-1.91.12v9.2h-.01z"/>
</svg>