<svg xmlns="http://www.w3.org/2000/svg" viewBox="0 0 128 128" width="128" height="128">
  <path fill="#0769AD" d="M9.625 32.181c-11.029 15.851-9.656 36.476-1.231 53.32.2.404.41.801.617 1.198l.394.759.246.437.439.786c.262.461.53.92.804 1.379l.459.756c.304.491.615.976.933 1.46l.398.614c.439.655.888 1.309 1.352 1.951l.039.05.228.308c.401.553.814 1.099 1.232 1.639l.464.59c.373.469.752.935 1.138 1.399l.435.52c.518.61 1.047 1.217 1.586 1.812l.33.35c.488.515.979 1.028 1.487 1.525l.74.691c.406.391.82.777 1.234 1.16l.435.387c.394.346.798.682 1.203 1.021l.576.462c.334.272.673.534 1.016.8l.323.24c.363.276.732.544 1.103.8l.754.513c.331.225.67.44 1.01.65l.796.483c.342.208.688.41 1.034.61l.715.4c.499.268 1.001.53 1.508.781l.512.243c.362.17.736.327 1.096.489l.584.249c.373.155.741.313 1.117.458l.134.051c.375.145.754.278 1.135.416l.759.253c.361.118.724.236 1.089.35l.123.039c.444.135.89.267 1.338.391l.109.031c.445.123.891.24 1.341.356l.479.115a58.6 58.6 0 001.212.293l.124.028c.435.093.872.182 1.31.267l.594.106c.334.059.67.114 1.004.169l.359.056c.474.074.948.147 1.429.211l.189.024c.387.045.771.089 1.159.131l.483.045c.325.029.651.054.978.077l.618.038c.325.017.648.034.974.049l.649.024c.333.013.667.02 1.003.026l.614.004c.661.004 1.322 0 1.984-.016l.335-.008a54.03 54.03 0 00.983-.057l.119-.009a59.14 59.14 0 00.973-.089l.582-.069c.184-.022.37-.041.554-.065a57.734 57.734 0 00.906-.127l.119-.019c.324-.053.648-.108.971-.166l.583-.115c.212-.042.424-.085.636-.13a52.1 52.1 0 00.843-.198l.621-.154c.241-.062.481-.128.723-.198l.371-.105c.342-.1.683-.199 1.023-.302l.207-.063c.365-.117.728-.237 1.09-.362l.09-.03c.414-.146.826-.3 1.237-.46l.375-.149c.261-.104.521-.21.781-.32l.488-.213c.225-.1.449-.203.674-.308l.401-.188c.325-.156.648-.317.97-.481l.42-.225c.314-.17.626-.348.94-.522l.164-.093c.383-.221.762-.45 1.142-.688l.277-.176c.294-.183.584-.371.875-.562l.504-.338c.178-.123.358-.244.536-.37l.486-.35c.204-.146.405-.297.608-.448l.563-.435c.139-.108.28-.214.419-.324l.69-.562c.11-.09.218-.181.327-.277l.674-.598.405-.372c.173-.163.342-.332.513-.496l.5-.506c.144-.141.281-.291.422-.435l.438-.465c.139-.147.281-.29.419-.438l.576-.647c.115-.13.226-.265.34-.397.392-.462.795-.928 1.151-1.427l.252-.323c.305-.396.609-.793.908-1.198l.311-.422c.12-.17.243-.335.362-.507l.593-.847c.101-.147.199-.298.297-.447.151-.23.303-.458.451-.692l.272-.43c.148-.231.291-.468.439-.699l.396-.654c.12-.201.245-.4.361-.604l.351-.618c.134-.24.264-.485.392-.73l.299-.573c.132-.257.261-.517.389-.775l.233-.479c.169-.35.333-.702.495-1.058l.089-.199c.182-.401.363-.805.539-1.216l.039-.093a47.74 47.74 0 00.521-1.283l.208-.553c.104-.274.208-.554.311-.831l.253-.715c.121-.345.239-.693.359-1.041l.056-.17c.126-.38.248-.764.371-1.15l.111-.36c.168-.552.328-1.107.486-1.666l.132-.479c.18-.667.35-1.337.506-2.016l.052-.222a49.809 49.809 0 00.378-1.728l.036-.183c.098-.492.19-.984.28-1.479l.056-.324c.068-.402.137-.8.199-1.204l.099-.646c.028-.184.053-.371.08-.556.241-1.712.362-3.463.362-5.25a29.575 29.575 0 00-8.728-21.054c.157-.164.321-.326.479-.492l.232-.249c.083-.09.164-.181.244-.271l.741-.82.289-.331.365-.426.581-.698.195-.241.315-.396.62-.798.256-.339c.127-.171.25-.345.375-.519l.401-.569c.195-.279.387-.562.578-.849l.11-.166c.31-.474.605-.954.889-1.443l.062-.104c.264-.445.524-.895.777-1.349l.144-.256c.229-.41.454-.824.673-1.241l.125-.239c.245-.468.486-.94.717-1.419l.081-.168c.264-.543.517-1.092.758-1.648l.052-.117a41.268 41.268 0 001.58-4.028l.051-.15c.176-.51.349-1.022.512-1.538l.091-.287c.139-.428.277-.856.409-1.287l.12-.394a49.54 49.54 0 00.569-2.039l.064-.248c.1-.397.199-.8.293-1.199l.089-.39c.142-.602.272-1.208.397-1.816l.035-.178c.085-.418.17-.835.25-1.254l.044-.237c.08-.433.159-.866.231-1.3l.065-.394c.092-.576.178-1.152.256-1.731l.032-.248c.051-.391.095-.788.139-1.181l.089-.835c.029-.294.057-.589.08-.883l.055-.778.012-.209c.026-.437.044-.872.064-1.308l.015-.423c.011-.282.02-.564.026-.847l.014-.937c0-.282.01-.558.01-.839-.007-1.907-.092-3.801-.286-5.668l-.34.245c-.095-.041-.194-.079-.29-.118l-.319-.125-.025-.539c-.001-.022-.004-.044-.008-.066a32.464 32.464 0 00-.076-.851l-.122.053a30.471 30.471 0 00-1.084-4.153l-.022-.068c-.123-.365-.254-.728-.392-1.088l-.16-.422c-.128-.332-.262-.664-.402-.996l-.118-.272c-.234-.537-.48-1.068-.739-1.59l-.157-.304c-.192-.368-.391-.732-.6-1.091l-.206-.35a31.066 31.066 0 00-.798-1.25l-.049-.069c-.301-.435-.611-.861-.937-1.275l-.111-.14c-.253-.319-.514-.636-.782-.942l-.193-.215a30.29 30.29 0 00-.977-1.05l-.069-.066c-.327-.322-.661-.634-1.005-.936l-.267-.228c-.267-.227-.538-.449-.816-.663l-.102-.078a29.3 29.3 0 00-4.8-2.901l-.239-.116a30.522 30.522 0 00-1.092-.49l-.276-.112c-.363-.146-.732-.284-1.106-.418l-.192-.065a30.797 30.797 0 00-1.325-.422l-.18-.049c-.285-.076-.57-.153-.859-.222l-.173-.04c-.434-.1-.871-.193-1.314-.271l-.113-.02a29.07 29.07 0 00-1.347-.198c-.134-.015-.269-.03-.404-.043a31.996 31.996 0 00-6.743-.013c-.144.013-.288.027-.433.043-.271.027-.54.063-.809.096-.136.016-.272.031-.404.049-.468.059-.935.123-1.398.197-.105.018-.21.036-.314.055a28.54 28.54 0 00-1.815.383c-.192.046-.384.096-.577.146a28.342 28.342 0 00-1.12.315l-.51.155c-.366.116-.732.232-1.094.361l-.376.132a31.525 31.525 0 00-1.107.435l-.457.191c-.322.138-.644.277-.963.423l-.585.273c-.171.08-.341.162-.512.245a31.155 31.155 0 00-1.428.756l-.673.384c-.143.082-.285.164-.425.248a30.817 30.817 0 00-1.336.845c-.199.132-.398.264-.593.401-.139.099-.278.199-.417.3-.275.2-.549.411-.819.622l-.321.256c-.315.253-.624.514-.93.779-.1.088-.201.174-.301.265-.364.323-.723.654-1.072.996-.081.08-.16.162-.24.242a29.58 29.58 0 00-1.03 1.111l-.29.335c-.221.258-.435.523-.649.789-.87.109-.177.217-.264.326-.236.299-.465.607-.691.915-.093.126-.186.251-.276.379-.277.387-.544.782-.803 1.184l-.096.152a29.844 29.844 0 00-.935 1.59c-.07.13-.142.258-.21.386-.183.353-.355.712-.526 1.073l-.25.563c-.151.341-.3.684-.442 1.032l-.179.461c-.162.412-.314.829-.46 1.251l-.121.341c-.171.498-.333 1.001-.481 1.512l-.066.228c-.134.449-.26.903-.377 1.36l-.114.462a32.56 32.56 0 00-.499 2.487l-.022.147c-.068.434-.124.87-.176 1.309l-.018.156c-.046.414-.083.831-.115 1.255l-.02.31c-.027.393-.05.787-.063 1.185l-.013.52c-.001.056-.005.11-.005.166a32.188 32.188 0 00.127 2.88l.033.36c.023.239.053.475.8.711l.082.656c.035.24.069.481.11.718l.145.888.009.049a32.004 32.004 0 00.3 1.450l.055.241c.04.173.085.344.127.516.125.511.258 1.018.404 1.52l.122.404c.076.253.15.507.233.758.059.183.126.363.19.544l.253.724c.005.016.008.034.013.048M41.114 110.87a16.76 16.76 0 01-2.088.142c-4.079 0-7.22-1.108-9.403-3.316-2.197-2.224-3.276-5.423-3.276-9.607 0-3.966 1.103-7.211 3.377-9.724 2.212-2.445 5.108-3.686 8.624-3.686.898 0 1.696.06 2.39.179v11.108c0 2.297-.373 3.965-1.103 4.97-.731 1.006-1.904 1.507-3.521 1.507-1.424 0-2.531-.459-3.322-1.375-.791-.917-1.187-2.209-1.187-3.879v-.147h-5.414l.033.196c.065 3.208.967 5.672 2.702 7.354 1.71 1.654 4.183 2.493 7.355 2.493.627 0 1.31-.048 2.033-.145l.8.93M35.96 93.045c.781 0 1.345-.236 1.734-.709.399-.488.596-1.295.596-2.433v-3.685a8.995 8.995 0 00-1.262-.082c-1.035 0-1.869.321-2.485.957-.618.636-.928 1.516-.928 2.622 0 .95.237 1.673.731 2.173.485.493 1.051.739 1.675.739M53.509 92.854c-.459.333-.838.837-1.13 1.503v9.006h-5.598v-18.5h5.5v2.354a7.63 7.63 0 011.95-1.827c.762-.515 1.58-.772 2.438-.772l.099 5.729c-.327-.033-.668-.049-1.023-.049-.945 0-1.775.187-2.236.556M63.867 87.062a5.585 5.585 0 011.824 2.304 6.976 6.976 0 01.61 2.919v11.078h-5.6v-10.456c0-1.186-.199-2.05-.596-2.598a1.926 1.926 0 00-1.675-.822c-.878 0-1.556.346-2.05 1.04-.494.693-.746 1.674-.746 2.944v9.892h-5.616v-18.5h5.5v2.354c.61-.991 1.345-1.732 2.204-2.224.862-.488 1.835-.73 2.928-.73 1.417 0 2.6.264 3.217.799M72.98 103.363h-5.616v-18.5h5.616v18.5zm0-21.099h-5.616v-5.3h5.616v5.3zM76.597 84.863h5.565v2.468c.493-.95 1.15-1.672 1.97-2.156.82-.488 1.774-.73 2.862-.73 1.845 0 3.307.6 4.358 1.797 1.051 1.193 1.58 2.861 1.58 5.003v12.118h-5.603v-10.456c0-1.186-.197-2.05-.602-2.598a1.904 1.904 0 00-1.674-.822c-.944 0-1.66.359-2.146 1.077-.488.718-.73 1.778-.73 3.184v9.615h-5.598l.018-18.5z"/>
</svg> 