<svg width="24" height="24" viewBox="0 0 24 24" fill="none" xmlns="http://www.w3.org/2000/svg">
  <path d="M12 13C13.6569 13 15 11.6569 15 10C15 8.34315 13.6569 7 12 7C10.3431 7 9 8.34315 9 10C9 11.6569 10.3431 13 12 13Z" stroke="currentColor" stroke-width="1.5" stroke-linecap="round" stroke-linejoin="round"/>
  <path d="M19.1219 17.1221L13.4544 22.7896C12.6493 23.5947 11.3541 23.5947 10.549 22.7896L4.87859 17.1221C2.70359 14.9471 2.70359 11.5221 4.87859 9.34714C7.05359 7.17214 10.4786 7.17214 12.6536 9.34714C14.8286 7.17214 18.2536 7.17214 20.4286 9.34714C22.6036 11.5221 22.5994 14.9521 19.1219 17.1221Z" stroke="currentColor" stroke-width="1.5" stroke-linecap="round" stroke-linejoin="round"/>
</svg> 