<svg xmlns="http://www.w3.org/2000/svg" width="128" height="128" viewBox="0 0 128 128">
  <path fill="#13AA52" d="M64 120.2c-1.1-.3-2.2-.6-3.3-1-4.3-1.5-8.5-3.2-12.4-5.6-7.5-4.6-14-10.3-19.1-17.5-4.4-6.3-7.4-13.3-9.1-20.8-1.3-5.5-1.7-11.2-1.3-16.8.6-9.7 3.2-18.9 7.8-27.3 3.2-5.8 7.2-11 12.1-15.5 0 0 1.1-1 0 0l-.4.4c-.1.1 0 0 0 0 0 .1 0 .2-.2.2-1.7 1.6-3.3 3.3-4.8 5.1-5.2 6.4-9.1 13.8-11.2 21.8-1.7 6.7-2 13.6-1.1 20.5.7 4.8 2.1 9.4 4 13.8 2.4 5.5 5.6 10.5 9.5 15C39.3 100 46.5 105 55 107.8c5.3 1.8 10.8 2.8 16.4 2.9-3.4 1.7-7.2 2.7-7.4 9.5z"/>
  <path fill="#13AA52" d="M67 113c7.7-6.4 11.7-14.4 12.8-24.2.9-8-1.1-15.3-4.9-22-2.7-4.8-6.4-8.9-10.5-12.5-.5-.4-1-.8-1.5-1.1l-.5-.4c.3-.3 1-.5 1.4-.7 2.4-1 5-1.5 7.6-1 1.6.3 3.1 1 4.1 2.3.3.4-.1 1.5-.3 1.7-.3.2-.8.2-1.7-.5-.8-.7-1.7-.7-2.6-.4-1.6.6-3 1.5-4.3 2.6-6.3 5.2-11.1 11.4-14.2 18.9-2.8 6.7-4.3 13.8-4.2 21 0 .4.1.9.1 1.3-1.1-1.8-1.5-14-1.4-15.8.6-6.8 2.3-13.3 5.1-19.5 2-4.3 4.5-8.5 7.7-12.2.3-.3 1-1 .5-.8l-.5.4c-.9.7-1.7 1.5-2.4 2.3-5.3 5.8-9.2 12.5-11.6 20-1.7 5.5-2.7 11.2-2.8 17-.1 7 .8 14 2.6 20.7 1.1 3.9 2.6 7.8 4.5 11.4 1.1 2.2 2.5 4.4 4 6.3H60c2.4 1.7 3.1 3.4 3.3 3.8.8 1.5 1 4.3 3.7 6.2zM54.7 41.5L54 43.3c-.2-.3-.3-.6-.4-1 .2-.2.3-.5.5-.7.2-.1.4-.2.6-.1z"/>
</svg> 