<svg xmlns="http://www.w3.org/2000/svg" viewBox="0 0 24 24" fill="currentColor"><path d="M11.214.006c-.052.005-.216.022-.364.033C7.442.347 4.25 2.186 2.226 5.013a11.88 11.88 0 0 0-2.118 5.243c-.096.66-.108.854-.108 1.748s.012 1.089.108 1.748c.652 4.507 3.86 8.293 8.209 9.695.779.251 1.6.422 2.533.526.364.04 1.936.04 2.3 0 1.611-.179 2.977-.578 4.323-1.265.207-.105.247-.134.219-.157-.02-.014-.899-1.194-1.955-2.62l-1.919-2.593-2.404-3.558a342.499 342.499 0 0 0-2.422-3.556c-.009-.002-.018 1.578-.023 3.51-.007 3.38-.01 3.516-.052 3.596-.061.115-.108.181-.184.255a.473.473 0 0 1-.391.124c-.138-.02-.229-.078-.335-.21l-.088-.107-1.144-1.668-.04 1.941.059.063c.399.425.898.655 1.524.7.388.028 1.452.25 1.908.397.507.162.939.345 1.537.656.182.092.514.29.692.414.402.28.535.38.607.396.1.026.125.014.253-.058 2.527-1.916 4.203-4.741 4.691-7.932.096-.66.108-.854.108-1.748s-.012-1.088-.108-1.748C23.24 5.75 20.032 1.963 15.683.562a11.732 11.732 0 0 0-2.6-.523c-.267-.028-1.645-.04-1.87-.01zm4.913 7.26a.473.473 0 0 1 .237.276c.018.06.023 1.365.018 4.305l-.007 4.218-.7-1.014c-.449-.652-1.175-1.702-1.612-2.335l-2.35-3.42c-.378-.55-.702-1.028-.72-1.065-.04-.072-.11-.167-.157-.21a.571.571 0 0 0-.52-.11c-.137.037-.299.182-.356.317-.028.068-.032.094-.032 4.634 0 2.527.003 4.585.008 4.585.005 0 .285-.387.623-.86l1.16-1.687 2.363-3.43a127.58 127.58 0 0 1 1.614-2.338c.015-.002.429.615.919 1.371.851 1.313 1.708 2.636 2.577 3.974.184.285.334.518.334.521 0 .003-.004-1.811-.009-4.03-.007-3.82-.01-4.039-.052-4.11-.06-.105-.178-.195-.32-.245-.095-.033-.126-.036-.341-.036-.214 0-.246.003-.341.036z"/></svg> 