<svg xmlns="http://www.w3.org/2000/svg" width="128" height="128" viewBox="0 0 128 128">
  <path fill="#001D26" d="M0 0v128h128V0H0z"/>
  <path fill="#31A8FF" d="M27 43.08v37.94c0 .47.35 1 1.05.82.43 0 .82 0 1.36-.12 5.06-.82 8.49-5.64 8.49-11.29 0-5.88-3.66-10.46-9.43-10.46-1.17 0-1.47.12-1.47 1.17v19.07V43.08zm24.04 29.34c-3.19 0-4.28 1.64-4.28 3.02 0 1.52 1.29 2.56 6.35 4.88 7.29 3.3 9.55 6.47 9.55 11.18 0 7-5.3 10.7-12.47 10.7-3.78 0-7.05-.8-8.93-1.87-.29-.11-.35-.3-.35-.58V93c0-.36.23-.46.47-.3 3.89 2.57 7.4 3.68 8.92 3.68 3.19 0 4.52-1.4 4.52-3.31 0-1.53-.94-2.8-6.35-5.06-7.29-3.18-9.32-6.35-9.32-10.93 0-5.64 4.4-10.34 12-10.34 3.77 0 6.4.59 7.87 1.28.35.24.47.59.47 1.05v6.47c0 .35-.23.58-.7.47a15.29 15.29 0 00-7.75-2.58z"/>
</svg> 