<svg xmlns="http://www.w3.org/2000/svg" viewBox="0 0 24 24" fill="#61DAFB"><path d="M12 13.5a1.5 1.5 0 1 1 0-3 1.5 1.5 0 0 1 0 3Z"/><path d="M12 21.35c-.76 0-1.52-.16-2.29-.46-1.66-.66-3.25-1.93-4.58-3.65C3.9 15.53 3 13.5 3 12s.9-3.53 2.13-5.24c1.33-1.72 2.92-2.99 4.58-3.65.77-.3 1.53-.46 2.29-.46s1.52.16 2.29.46c1.66.66 3.25 1.93 4.58 3.65C20.1 8.47 21 10.5 21 12s-.9 3.53-2.13 5.24c-1.33 1.72-2.92 2.99-4.58 3.65-.77.3-1.53.46-2.29.46Zm0-16.7c-.51 0-1.04.11-1.59.32-1.38.55-2.77 1.65-3.91 3.13C5.5 9.58 4.7 11.25 4.7 12s.8 2.42 1.8 3.9c1.14 1.48 2.53 2.58 3.91 3.13.55.22 1.08.32 1.59.32s1.04-.11 1.59-.32c1.38-.55 2.77-1.65 3.91-3.13 1-1.48 1.8-3.15 1.8-3.9s-.8-2.42-1.8-3.9c-1.14-1.48-2.53-2.58-3.91-3.13-.55-.22-1.08-.32-1.59-.32Z"/><path d="M10.07 16.14c-.32 0-.63-.06-.91-.18-1.14-.48-1.52-2.13-1.05-4.17.32-1.4.98-3.01 1.86-4.55 1.22-2.14 2.67-3.76 3.99-4.47.66-.35 1.29-.46 1.82-.3 1.14.48 1.52 2.13 1.05 4.17-.32 1.4-.98 3.01-1.86 4.55-1.22 2.14-2.67 3.76-3.99 4.47-.33.18-.64.28-.91.3-.33.13-.66.18-1 .18Zm3.7-12c-.18 0-.39.07-.61.18-1.06.57-2.35 2.01-3.44 3.94-.82 1.44-1.43 2.93-1.71 4.2-.36 1.56-.09 2.61.45 2.84.54.23 1.58-.23 2.94-1.61 1.06-.57 2.35-2.01 3.44-3.94.82-1.44 1.43-2.93 1.71-4.2.36-1.56.09-2.61-.45-2.84-.12-.23-.27-.34-.45-.37-.13-.13-.24-.2-.36-.2h-.52Z"/><path d="M13.93 16.32c-.33 0-.66-.05-1-.15a.46.46 0 0 0-.18 0c-.27-.02-.58-.12-.91-.3-1.32-.71-2.77-2.33-3.99-4.47-.88-1.54-1.54-3.14-1.86-4.54-.47-2.04-.09-3.69 1.05-4.17.54-.16 1.16-.05 1.82.3 1.32.71 2.77 2.33 3.99 4.47.88 1.54 1.54 3.14 1.86 4.54.47 2.04.09 3.69-1.05 4.17-.28.12-.58.18-.91.18.09-.02.18-.02.18-.02Zm-4-12c-.18 0-.37.07-.54.18-.54.23-.81 1.28-.45 2.84.29 1.26.89 2.76 1.71 4.2 1.09 1.92 2.39 3.37 3.44 3.94 1.36 1.38 2.4 1.84 2.94 1.61.54-.23.81-1.28.45-2.84-.29-1.26-.89-2.76-1.71-4.2-1.09-1.92-2.39-3.37-3.44-3.94-.21-.11-.42-.18-.6-.18h-.8v.39Z"/></svg> 