<svg xmlns="http://www.w3.org/2000/svg" viewBox="0 0 24 24" fill="#3178C6"><path d="M1.125 0C.502 0 0 .502 0 1.125v21.75C0 23.498.502 24 1.125 24h21.75c.623 0 1.125-.502 1.125-1.125V1.125C24 .502 23.498 0 22.875 0H1.125zM14.44 12.016v-.001a3.83 3.83 0 0 1 1.757-.455c1.118.005 1.675.335 2.307.915.169.156.476.488.476.488l2.253-1.35s-.05-.057-.088-.1c-1.205-1.404-2.867-1.91-4.857-1.91-2.011 0-3.58.672-4.715 2.011-1.136 1.339-1.702 2.937-1.702 4.791 0 1.85.561 3.41 1.689 4.688 1.267 1.4 2.999 2.104 5.223 2.104 1.633 0 3.006-.483 4.11-1.444.286-.254.476-.453.647-.669.02-.029.046-.066.071-.101a.602.602 0 0 0 .04-.059l-2.239-1.371s-.229.358-.45.56c-.637.593-1.445.891-2.426.891-1.038 0-1.911-.357-2.613-1.066-.697-.703-1.042-1.707-1.042-3.008 0-1.258.32-2.262.964-3.015.645-.755 1.479-1.129 2.595-1.133zm-7.008 1.174v2.543h4.144v2.483H7.432v6.628H4.529V12H12v1.19H7.432z" /></svg> 