<svg width="24" height="24" viewBox="0 0 24 24" fill="none" xmlns="http://www.w3.org/2000/svg">
  <path d="M21 16V8.00002C21 6.34317 19.6569 5.00002 18 5.00002H17.2C16.6 5.00002 16 4.70002 15.6 4.20002L14.6 3.00002C14.2 2.50002 13.6 2.20002 13 2.20002H11C10.4 2.20002 9.8 2.50002 9.4 3.00002L8.4 4.20002C8 4.70002 7.4 5.00002 6.8 5.00002H6C4.34315 5.00002 3 6.34317 3 8.00002V16C3 17.6569 4.34315 19 6 19H18C19.6569 19 21 17.6569 21 16Z" stroke="currentColor" stroke-width="1.5" stroke-linecap="round" stroke-linejoin="round"/>
  <path d="M12 16C14.2091 16 16 14.2091 16 12C16 9.79086 14.2091 8 12 8C9.79086 8 8 9.79086 8 12C8 14.2091 9.79086 16 12 16Z" stroke="currentColor" stroke-width="1.5" stroke-linecap="round" stroke-linejoin="round"/>
</svg> 